<?xml version="1.0" encoding="iso-8859-1"?>
<!-- Generator: Adobe Illustrator 19.0.0, SVG Export Plug-In . SVG Version: 6.00 Build 0)  -->
<svg version="1.1" id="Layer_1" xmlns="http://www.w3.org/2000/svg" xmlns:xlink="http://www.w3.org/1999/xlink" x="0px" y="0px"
	 viewBox="0 0 512 512" style="enable-background:new 0 0 512 512;" xml:space="preserve">
<path style="fill:#235559;" d="M437.02,74.98C388.667,26.628,324.25,0,255.87,0S123.333,26.628,74.98,74.98
	C26.628,123.333,0,187.62,0,256s26.628,132.667,74.98,181.02C123.333,485.372,187.49,512,255.87,512s132.797-26.628,181.15-74.98
	C485.372,388.667,512,324.38,512,256S485.372,123.333,437.02,74.98z"/>
<path style="fill:#38979E;" d="M255.87,0.003C187.58,0.067,123.275,26.686,74.98,74.98C26.628,123.333,0,187.62,0,256
	s26.628,132.667,74.98,181.02c48.295,48.294,112.6,74.915,180.89,74.978V0.003z"/>
<path style="fill:#30767A;" d="M398.454,113.546c-38.051-38.052-88.772-59.007-142.584-59.007s-104.273,20.955-142.325,59.007
	C75.494,151.597,54.539,202.188,54.539,256s20.955,104.403,59.007,142.454c38.05,38.052,88.511,59.007,142.324,59.007
	s104.534-20.955,142.584-59.007c38.052-38.051,59.007-88.642,59.007-142.454S436.506,151.597,398.454,113.546z"/>
<path style="fill:#4AB6BF;" d="M255.87,54.542c-53.721,0.063-104.331,21.01-142.325,59.004
	C75.494,151.597,54.539,202.188,54.539,256s20.955,104.403,59.006,142.454c37.994,37.993,88.603,58.94,142.325,59.004V54.542z"/>
<g>
	<path style="fill:#79C6BF;" d="M255.87,172.572c21.245,0,38.596-17.222,38.596-38.467s-17.352-38.467-38.596-38.467
		s-38.337,17.222-38.337,38.467C217.533,155.351,234.625,172.572,255.87,172.572z"/>
	<path style="fill:#79C6BF;" d="M294.467,354.584h-0.938V236.578c0-20.726-16.932-37.528-37.658-37.528h-31.994
		c-20.726,0-37.528,16.803-37.528,37.528c0,18.891,13.959,34.522,32.124,37.142v80.864h-0.938
		c-18.135,0-32.837,14.701-32.837,32.837c0,18.136,14.701,32.837,32.837,32.837h76.934c18.135,0,32.837-14.701,32.837-32.837
		C327.304,369.286,312.602,354.584,294.467,354.584z"/>
</g>
<g>
	<path style="fill:#E4F3F6;" d="M255.87,199.05h-31.994c-20.726,0-37.528,16.803-37.528,37.528
		c0,18.891,13.959,34.522,32.124,37.142v80.864h-0.938c-18.135,0-32.837,14.701-32.837,32.837c0,18.136,14.701,32.837,32.837,32.837
		h38.337V199.05H255.87z"/>
	<path style="fill:#E4F3F6;" d="M255.87,95.646c-21.132,0.131-38.337,17.298-38.337,38.46c0,21.163,17.204,38.329,38.337,38.46
		V95.646z"/>
</g>
<g>
</g>
<g>
</g>
<g>
</g>
<g>
</g>
<g>
</g>
<g>
</g>
<g>
</g>
<g>
</g>
<g>
</g>
<g>
</g>
<g>
</g>
<g>
</g>
<g>
</g>
<g>
</g>
<g>
</g>
</svg>
