<svg width="194" height="174" viewBox="0 0 194 174" fill="none" xmlns="http://www.w3.org/2000/svg">
<g clip-path="url(#clip0)">
<path d="M96.9994 104.431C106.549 104.431 114.291 96.6269 114.291 87C114.291 77.3731 106.549 69.5689 96.9994 69.5689C87.4497 69.5689 79.7081 77.3731 79.7081 87C79.7081 96.6269 87.4497 104.431 96.9994 104.431Z" fill="#61DAFB"/>
<path d="M96.9997 122.712C148.242 122.712 189.782 106.723 189.782 87C189.782 67.2765 148.242 51.2876 96.9997 51.2876C45.7573 51.2876 4.2171 67.2765 4.2171 87C4.2171 106.723 45.7573 122.712 96.9997 122.712Z" stroke="#61DAFB"/>
<path d="M66.319 104.856C91.9402 149.592 126.446 177.863 143.39 168.001C160.334 158.14 153.3 113.88 127.679 69.1438C102.058 24.4079 67.5516 -3.86321 50.6076 5.9985C33.6635 15.8602 40.6978 60.1203 66.319 104.856Z" stroke="#61DAFB"/>
<path d="M66.3194 69.1438C40.6981 113.88 33.6639 158.14 50.6079 168.002C67.552 177.863 102.058 149.592 127.679 104.856C153.3 60.1203 160.335 15.8602 143.391 5.99854C126.447 -3.86317 91.9406 24.4079 66.3194 69.1438Z" stroke="#61DAFB"/>
</g>
<defs>
<clipPath id="clip0">
<rect width="194" height="174" fill="white"/>
</clipPath>
</defs>
</svg>
